<svg xmlns="http://www.w3.org/2000/svg" width="16.247" height="10.1" viewBox="0 0 16.247 10.1">
  <g id="route_1_" data-name="route (1)" transform="translate(-15.25 -165.25)">
    <path id="Path_277223" data-name="Path 277223" d="M144.259,320.952H135.9a.652.652,0,1,1,0-1.3h8.357a1.547,1.547,0,1,0,0-3.095h-2.2a.652.652,0,0,1,0-1.3h2.2a2.851,2.851,0,0,1,0,5.7Z" transform="translate(-115.612 -145.602)" fill="#feffff"/>
    <path id="Path_277224" data-name="Path 277224" d="M19.86,170.952H18.1a2.851,2.851,0,1,1,0-5.7h8.8a.652.652,0,1,1,0,1.3H18.1a1.547,1.547,0,0,0,0,3.095H19.86a.652.652,0,1,1,0,1.3Z" fill="#feffff"/>
    <path id="Ellipse_4114" data-name="Ellipse 4114" d="M.771-.75A1.521,1.521,0,1,1-.75.771,1.523,1.523,0,0,1,.771-.75Zm0,1.738A.217.217,0,1,0,.554.771.218.218,0,0,0,.771.988Z" transform="translate(22.168 169.529)" fill="#feffff"/>
  </g>
</svg>
