<svg xmlns="http://www.w3.org/2000/svg" width="20.196" height="20.196" viewBox="0 0 20.196 20.196">
  <g id="Trash" transform="translate(-1.999 -2.001)">
    <path id="Union_42" data-name="Union 42" d="M-14423.1-1930.705a3.034,3.034,0,0,1-3.027-3.031v-12.117h-2.021a1.011,1.011,0,0,1-1.011-1.01,1.011,1.011,0,0,1,1.011-1.01h5.048v-2.021a1.008,1.008,0,0,1,1.011-1.007h6.058a1.008,1.008,0,0,1,1.011,1.007v2.021h5.048a1.011,1.011,0,0,1,1.011,1.01,1.011,1.011,0,0,1-1.011,1.01h-2.017v12.117a3.037,3.037,0,0,1-3.031,3.031Zm-1.011-3.031a1.014,1.014,0,0,0,1.011,1.01h8.079a1.01,1.01,0,0,0,1.01-1.01v-12.117h-10.1Zm3.031-14.137h4.038v-1.01h-4.038Zm3.027,11.613v-6.058a1.011,1.011,0,0,1,1.011-1.01,1.01,1.01,0,0,1,1.01,1.01v6.058a1.01,1.01,0,0,1-1.01,1.01A1.011,1.011,0,0,1-14418.057-1936.26Zm-4.037,0v-6.058a1.01,1.01,0,0,1,1.01-1.01,1.011,1.011,0,0,1,1.011,1.01v6.058a1.011,1.011,0,0,1-1.011,1.01A1.01,1.01,0,0,1-14422.094-1936.26Z" transform="translate(14431.162 1952.902)" fill="#fb082c"/>
  </g>
</svg>
