<svg xmlns="http://www.w3.org/2000/svg" width="10.551" height="16.782" viewBox="0 0 10.551 16.782">
  <path id="Union_52" data-name="Union 52" d="M-5658.835-.75a.636.636,0,0,0-.636.636v.84h-8.644a.636.636,0,0,0-.587.392.636.636,0,0,0,.138.693L-5666,4.373l-2.562,2.564a.636.636,0,0,0-.138.693.636.636,0,0,0,.587.392h8.644V15.4a.636.636,0,0,0,.636.636.636.636,0,0,0,.636-.636V-.114A.636.636,0,0,0-5658.835-.75ZM-5666.58,2h7.109V6.751h-7.109l1.928-1.928a.636.636,0,0,0,0-.9Z" transform="translate(5668.75 0.75)" fill="#feffff"/>
</svg>
