<svg xmlns="http://www.w3.org/2000/svg" width="10.551" height="16.782" viewBox="0 0 10.551 16.782">
  <path id="Union_52" data-name="Union 52" d="M-5668.115-.75a.636.636,0,0,1,.636.636v.84h8.644a.636.636,0,0,1,.587.392.636.636,0,0,1-.138.693l-2.562,2.562,2.563,2.564a.636.636,0,0,1,.138.693.636.636,0,0,1-.587.392h-8.644V15.4a.636.636,0,0,1-.636.636.636.636,0,0,1-.636-.636V-.114A.636.636,0,0,1-5668.115-.75ZM-5660.37,2h-7.109V6.751h7.109l-1.928-1.928a.636.636,0,0,1,0-.9Z" transform="translate(5668.75 0.75)" fill="#feffff"/>
</svg>
