<svg xmlns="http://www.w3.org/2000/svg" width="17.284" height="20.544" viewBox="0 0 17.284 20.544">
  <g id="write" transform="translate(-7.875 0.025)">
    <path id="Path_277223" data-name="Path 277223" d="M9.954,17.037a1.478,1.478,0,0,0,.431-.061l3.7-.729a2.387,2.387,0,0,0,1.089-.587l8.955-8.832a3.6,3.6,0,0,0,0-5.044l-.76-.79a3.747,3.747,0,0,0-5.135,0L9.276,9.845a2.424,2.424,0,0,0-.6,1.074L7.9,14.606a2.107,2.107,0,0,0,.6,1.843,2.157,2.157,0,0,0,1.458.587Zm.7-5.733,8.955-8.853a1.668,1.668,0,0,1,2.259,0l.78.77a1.557,1.557,0,0,1,0,2.33L13.713,14.4l-3.8.628Z" transform="translate(0 0)" fill="#0e87d5"/>
    <path id="Path_277224" data-name="Path 277224" d="M24.134,90.4H8.985A.962.962,0,0,0,8,91.458a1.021,1.021,0,0,0,.985,1.058H24.052a1.059,1.059,0,0,0,.082-2.116Z" transform="translate(-0.098 -71.997)" fill="#0e87d5"/>
  </g>
</svg>
